<?xml version="1.0" encoding="utf-8"?>
<!-- Generator: Adobe Illustrator 21.0.0, SVG Export Plug-In . SVG Version: 6.00 Build 0)  -->
<svg version="1.1" id="组_28_1_" xmlns="http://www.w3.org/2000/svg" xmlns:xlink="http://www.w3.org/1999/xlink" x="0px" y="0px"
	 viewBox="0 0 36.4 40" style="enable-background:new 0 0 36.4 40;" xml:space="preserve">
<style type="text/css">
	.st0{opacity:0.302;}
	.st1{fill:#2BEDE6;}
</style>
<g>
	<g id="形状_1_拷贝" class="st0">
		<g>
			<path class="st1" d="M32.1,11.1c0.1-0.3,0.1-0.7,0.1-1.1c0-3-2.4-5.4-5.4-5.4c-0.7,0-1.4,0.1-2.1,0.4c-1.6-3-4.7-5-8.3-5
				C11.3,0,7.2,4,7,9c-3.6,0.4-6.5,3.5-6.5,7.2c0,3.9,3.2,7.1,7.1,7.2l0,0h22.7l0,0c3.4-0.1,6.2-2.9,6.2-6.3
				C36.4,14.3,34.6,11.9,32.1,11.1z"/>
		</g>
	</g>
	<g id="形状_1">
		<g>
			<path class="st1" d="M23,23.5V35c0,2-1.6,3.6-3.6,3.6S15.8,37,15.8,35v-0.3h0.5c0.4,0,0.6-0.4,0.3-0.7l-1.2-1.2
				c-0.2-0.2-0.4-0.2-0.6,0L13.6,34c-0.3,0.3-0.1,0.7,0.3,0.7h0.5V35c0,2.7,2.2,5,5,5s5-2.2,5-5V23.5H23z"/>
		</g>
	</g>
	<g id="形状_2">
		<g>
			<path class="st1" d="M27.9,12.7l-0.6,2.6l-0.8-2.6H25l-0.8,2.6l-0.6-2.6H22l1.2,4.7h1.6l0.9-2.9l0.9,2.9h1.6l1.2-4.7
				C29.4,12.7,27.9,12.7,27.9,12.7z M19.8,15.4L19,12.7h-1.6l-0.8,2.6L16,12.7h-1.6l1.2,4.7h1.6l0.9-2.9l0.9,2.9h1.6l1.2-4.7h-1.6
				L19.8,15.4z M12.2,15.4l-0.8-2.6H9.9L9,15.4l-0.6-2.6H6.9l1.2,4.7h1.6l0.9-2.9l0.9,2.9h1.6l1.2-4.7h-1.6L12.2,15.4z"/>
		</g>
	</g>
	<g id="形状_1_拷贝_2_">
		<g>
			<g>
				<rect x="18.7" y="22.9" class="st1" width="10" height="1"/>
			</g>
		</g>
	</g>
	<g id="形状_1_拷贝_4_">
		<g>
			<g>
				<path class="st1" d="M7.6,23.9C3.4,23.8,0,20.3,0,16.2c0-3.9,3.1-7.3,6.9-7.7l0.1,1c-3.3,0.4-6,3.3-6,6.7c0,3.6,3,6.6,6.6,6.7
					V23.9z"/>
			</g>
		</g>
	</g>
	<g id="形状_1_拷贝_6_">
		<g>
			<g>
				<path class="st1" d="M32.6,11.3L31.7,11c0.1-0.2,0.1-0.6,0.1-0.9c0-2.7-2.2-4.9-4.9-4.9c-0.7,0-1.3,0.1-1.9,0.4l-0.4-0.9
					c0.7-0.3,1.4-0.4,2.3-0.4c3.3,0,5.9,2.6,5.9,5.9C32.7,10.4,32.7,10.9,32.6,11.3z"/>
			</g>
		</g>
	</g>
</g>
</svg>
