<?xml version="1.0" encoding="utf-8"?>
<!-- Generator: Adobe Illustrator 21.0.0, SVG Export Plug-In . SVG Version: 6.00 Build 0)  -->
<svg version="1.1" id="图层_1" xmlns="http://www.w3.org/2000/svg" xmlns:xlink="http://www.w3.org/1999/xlink" x="0px" y="0px"
	 viewBox="0 0 41.1 41" style="enable-background:new 0 0 41.1 41;" xml:space="preserve">
<style type="text/css">
	.st0{fill:#F54664;fill-opacity:0.3;}
	.st1{opacity:0.3;fill:#F54664;enable-background:new    ;}
	.st2{fill:#F54664;}
	.st3{fill:none;stroke:#F54664;}
</style>
<circle id="椭圆_2" class="st0" cx="20.9" cy="19.6" r="13.3"/>
<path id="矩形_11_拷贝_2" class="st1" d="M21.1,24.9l8.5,13.4c-5.4,2.5-11.5,2.5-16.9,0L21.1,24.9z M1,17C1.8,11.3,5,6.2,9.8,3
	l7.9,14H1z M24.4,17l7.9-14c4.8,3.2,8,8.3,8.8,14H24.4L24.4,17z"/>
<path id="形状_1" class="st2" d="M20.9,18c-1,0-1.8,0.8-1.7,1.8c0,1,0.8,1.8,1.8,1.7c1,0,1.7-0.8,1.7-1.8
	C22.7,18.8,21.9,18,20.9,18z M28.4,19.5C28.3,19.4,25,15,20.9,15s-7.4,4.4-7.5,4.6c-0.1,0.1-0.1,0.3,0,0.4c0.1,0.2,3.4,4.6,7.5,4.6
	s7.4-4.4,7.5-4.6C28.5,19.9,28.5,19.7,28.4,19.5L28.4,19.5z M20.9,22.8c-1.7,0-3-1.4-3-3.1s1.4-3,3.1-3s3,1.4,3,3.1
	S22.6,22.9,20.9,22.8z"/>
<g>
	<path class="st3" d="M27.5,3.6c-2-0.8-4.2-1.2-6.4-1.2s-4.5,0.4-6.4,1.2"/>
	<path class="st3" d="M3.8,22.1c0.6,4.6,3.1,8.7,6.6,11.4"/>
	<path class="st3" d="M31.7,33.5c3.5-2.7,5.9-6.8,6.6-11.4"/>
</g>
<g>
	<path class="st3" d="M21.1,40.5c4.9,0,9.5-1.8,13-4.7"/>
	<path class="st3" d="M39.1,10.1c-2.4-4.5-6.5-7.9-11.4-9.6"/>
	<path class="st3" d="M3.4,9.4c-1.8,3.1-2.9,6.7-2.9,10.5c0,1.3,0.1,2.5,0.3,3.7"/>
</g>
</svg>
