<?xml version="1.0" encoding="utf-8"?>
<!-- Generator: Adobe Illustrator 21.0.0, SVG Export Plug-In . SVG Version: 6.00 Build 0)  -->
<svg version="1.1" id="图层_1" xmlns="http://www.w3.org/2000/svg" xmlns:xlink="http://www.w3.org/1999/xlink" x="0px" y="0px"
	 viewBox="0 0 34.3 40" style="enable-background:new 0 0 34.3 40;" xml:space="preserve">
<style type="text/css">
	.st0{opacity:0.3;fill:#2BEDE6;enable-background:new    ;}
	.st1{fill:#2BEDE6;}
	.st2{opacity:0.5;fill:#2BEDE6;enable-background:new    ;}
</style>
<path id="圆角矩形_1" class="st0" d="M33.8,7.2V27c0,1.3-1,2.3-2.3,2.3l0,0H2.8c-1.3,0-2.3-1-2.3-2.3l0,0V7.2H33.8z"/>
<g id="圆角矩形_1_拷贝_3_">
	<path class="st1" d="M33.8,7.7H0.5V4.2c0-1.4,1.2-2.6,2.6-2.6h0.8v1H3.1c-0.9,0-1.6,0.7-1.6,1.6v2.6h31.3V4.2
		c0-0.9-0.7-1.6-1.6-1.6h-0.5v-1h0.5c1.4,0,2.6,1.2,2.6,2.6V7.7z"/>
</g>
<g id="圆角矩形_1_拷贝_2_">
	<rect x="9.4" y="1.6" class="st1" width="15.9" height="1"/>
</g>
<path id="矩形_9_拷贝" class="st1" d="M13.8,11.2H29v1.1H13.8V11.2z M13.8,13.9h7.6V15h-7.6L13.8,13.9L13.8,13.9z"/>
<path id="矩形_9" class="st1" d="M8.7,13.2v2.2H5.6v-2.2H4.1l3.1-2.8l3.1,2.8H8.7L8.7,13.2z"/>
<path id="矩形_9_拷贝_2" class="st0" d="M14,21h15.2v1.1H14V21z M14,23.6h7.6v1.1H14V23.6z"/>
<path id="矩形_9_拷贝_2-2" class="st0" d="M8.8,22.9v2.2H5.7v-2.2H4.2l3.1-2.8l3.1,2.8H8.8L8.8,22.9z"/>
<path id="WWW_拷贝_3" class="st1" d="M6.1,40H8l1-3.8l1.1,3.8H12l1.3-6h-1.8l-0.6,3.3l-1-3.3H8.1l-0.9,3.3L6.5,34H4.7L6.1,40z"/>
<path id="WWW_拷贝_3-2" class="st2" d="M15,40h1.9l1.1-3.8l1.1,3.8H21l1.3-6h-1.8l-0.6,3.3L18.8,34H17l-1,3.4L15.4,34h-1.8L15,40z
	"/>
<path id="WWW_拷贝_3-3" class="st0" d="M23.5,40h1.9l1.1-3.8l1.1,3.8h1.9l1.3-6H29l-0.6,3.3L27.3,34h-1.8l-0.9,3.3L23.9,34h-1.8
	L23.5,40z"/>
<g id="圆角矩形_1_2_">
	<path class="st1" d="M31.5,29.9h-1.9v-1h1.9c1,0,1.8-0.8,1.8-1.8v-1.9h1v1.9C34.3,28.7,33.1,29.9,31.5,29.9z"/>
</g>
<g id="圆角矩形_1_1_">
	<path class="st1" d="M4.7,29.8H2.8C1.2,29.8,0,28.6,0,27v-1.9h1V27c0,1,0.8,1.8,1.8,1.8h1.9V29.8z"/>
</g>
<g id="圆角矩形_2_拷贝">
	<path class="st1" d="M6.7,1C7,1,7.3,1.3,7.3,1.6v1.2c0,0.3-0.3,0.6-0.6,0.6S6.1,3.1,6.1,2.8V1.6c0-0.1,0.1-0.3,0.2-0.4
		C6.4,1.1,6.5,1,6.7,1 M28,1c0.3,0,0.6,0.3,0.6,0.6v1.2c0,0.3-0.3,0.6-0.6,0.6c-0.3,0-0.6-0.3-0.6-0.6V1.6c0-0.1,0.1-0.3,0.2-0.4
		C27.7,1.1,27.9,1,28,1 M28,0L28,0c-0.9,0-1.6,0.7-1.6,1.6v1.2c0,0.9,0.7,1.6,1.6,1.6s1.6-0.7,1.6-1.6V1.6l0,0C29.6,0.7,28.9,0,28,0
		L28,0z M6.7,0L6.7,0C5.8,0,5.1,0.7,5.1,1.6v1.2c0,0.9,0.7,1.6,1.6,1.6s1.6-0.7,1.6-1.6V1.6C8.2,0.7,7.5,0,6.7,0L6.7,0z"/>
</g>
</svg>
