<?xml version="1.0" encoding="utf-8"?>
<!-- Generator: Adobe Illustrator 21.0.0, SVG Export Plug-In . SVG Version: 6.00 Build 0)  -->
<svg version="1.1" id="组_32" xmlns="http://www.w3.org/2000/svg" xmlns:xlink="http://www.w3.org/1999/xlink" x="0px" y="0px"
	 viewBox="0 0 34.6 40" style="enable-background:new 0 0 34.6 40;" xml:space="preserve">
<style type="text/css">
	.st0{enable-background:new    ;}
	.st1{fill:#2BEDE6;}
	.st2{opacity:0.3;fill:#2BEDE6;enable-background:new    ;}
</style>
<g id="_404" class="st0">
	<path class="st1" d="M14.4,38.6h-0.8v1.3h-1.2v-1.3H9.2v-0.9l3-4.2h1.4v4.1h0.8V38.6z M12.4,34.8c-0.1,0.1-0.1,0.3-0.3,0.5
		l-1.6,2.2h1.8v-2C12.4,35.2,12.4,35,12.4,34.8z"/>
	<path class="st1" d="M19.8,36.7c0,2.2-0.8,3.3-2.5,3.3c-1.6,0-2.5-1.1-2.5-3.3c0.1-2.2,0.9-3.3,2.5-3.4
		C18.9,33.4,19.7,34.5,19.8,36.7z M18.3,36.7c0-1.6-0.3-2.3-0.9-2.3c-0.7,0-1,0.7-1,2.3c0,1.5,0.3,2.2,1,2.2
		C18,39,18.3,38.2,18.3,36.7z"/>
	<path class="st1" d="M25.4,38.6h-0.8v1.3h-1.2v-1.3h-3.1v-0.9l3-4.2h1.4v4.1h0.8L25.4,38.6L25.4,38.6z M23.4,34.8
		c-0.1,0.1-0.1,0.3-0.3,0.5l-1.6,2.2h1.8v-2C23.3,35.2,23.3,35,23.4,34.8z"/>
</g>
<path id="形状_2" class="st2" d="M34.1,7.1H0.5v19.2c0,1.2,1.1,2.2,2.3,2.2h29c1.2,0,2.3-1,2.3-2.2V7.1"/>
<path class="st2" d="M17.1,10.7c3.4,0,6.2,2.8,6.2,6.2s-2.8,6.2-6.2,6.2s-6.2-2.8-6.2-6.2l0,0C10.9,13.4,13.7,10.7,17.1,10.7
	L17.1,10.7z"/>
<g>
	<path class="st1" d="M17.1,23.6c-3.7,0-6.7-3-6.7-6.7c0-3.8,2.9-6.7,6.7-6.7c3.7,0,6.7,3,6.7,6.7S20.8,23.6,17.1,23.6z M17.1,11.2
		c-3.2,0-5.7,2.5-5.7,5.7c0,3.1,2.6,5.7,5.7,5.7s5.7-2.6,5.7-5.7S20.2,11.2,17.1,11.2z"/>
</g>
<path id="圆角矩形_23_拷贝" class="st1" d="M14.6,14.8H15c0.4,0,0.7,0.3,0.7,0.7s-0.3,0.7-0.7,0.7h-0.5
	c-0.4,0-0.7-0.3-0.7-0.7C13.9,15.1,14.2,14.8,14.6,14.8z M19.2,14.8h0.5c0.4,0,0.7,0.3,0.7,0.7s-0.3,0.7-0.7,0.7h-0.5
	c-0.4,0-0.7-0.3-0.7-0.7C18.5,15.1,18.8,14.8,19.2,14.8z"/>
<g id="圆角矩形_24">
	<path class="st1" d="M19.9,20.3c-0.4-0.6-0.7-1-1.2-1.2c-0.8-0.4-1.7-0.6-2.5-0.3c-0.8,0.2-1.5,0.7-1.8,1.4l-0.9-0.5
		c0.5-0.9,1.4-1.6,2.5-1.9s2.3-0.1,3.2,0.4c0.7,0.3,1.1,0.9,1.6,1.6L19.9,20.3z"/>
</g>
<path id="椭圆_3_拷贝_2" class="st1" d="M4,2.5c0.6,0,1,0.5,1,1c0,0.6-0.5,1-1,1S3,4,3,3.5l0,0C3,2.9,3.4,2.5,4,2.5z M7.3,2.5
	c0.6,0,1,0.5,1,1c0,0.6-0.5,1-1,1s-1-0.5-1-1S6.7,2.5,7.3,2.5L7.3,2.5z M10.8,2.5c0.6,0,1,0.4,1,1s-0.4,1-1,1s-1-0.4-1-1l0,0
	C9.8,2.9,10.2,2.5,10.8,2.5L10.8,2.5z"/>
<g id="形状_2_1_" class="st0">
	<path class="st1" d="M31.9,0v1c0.7,0,1.2,0.5,1.2,1.2v3.9H1.5V2.2C1.5,1.5,2.1,1,2.8,1l0,0h29.1V0 M31.9,0C31.9,0,31.8,0,31.9,0
		H2.8l0,0C1.5,0,0.5,1,0.5,2.2v4.9l0,0h33.6V2.2C34.1,1,33.1,0,31.9,0L31.9,0z"/>
</g>
<g id="形状_2_5_">
	<path class="st1" d="M31.8,28.9h-2.3v-1h2.3c1,0,1.8-0.8,1.8-1.7v-2.1h1v2.1C34.6,27.6,33.3,28.9,31.8,28.9z"/>
</g>
<g id="形状_2_4_">
	<path class="st1" d="M4.8,28.9h-2c-1.5,0-2.8-1.3-2.8-2.7v-2.4h1v2.4c0,0.9,0.8,1.7,1.8,1.7h2V28.9z"/>
</g>
</svg>
