<?xml version="1.0" encoding="utf-8"?>
<!-- Generator: Adobe Illustrator 21.0.0, SVG Export Plug-In . SVG Version: 6.00 Build 0)  -->
<svg version="1.1" id="组_29_1_" xmlns="http://www.w3.org/2000/svg" xmlns:xlink="http://www.w3.org/1999/xlink" x="0px" y="0px"
	 viewBox="0 0 40.4 40.7" style="enable-background:new 0 0 40.4 40.7;" xml:space="preserve">
<style type="text/css">
	.st0{opacity:0.302;}
	.st1{fill:#E8F647;}
	.st2{fill:none;stroke:#E8F647;stroke-miterlimit:10;}
</style>
<g id="形状_1" class="st0">
	<g>
		<path class="st1" d="M13.2,11.9h11.6l0,0H30l-4.3-2.4l-2.5-8.8L19,2.3l-4.1-1.6l-2.5,8.8L8,11.9H13.2L13.2,11.9z M37.6,31.5
			c-0.3-0.4-0.5-0.6-0.5-0.6c-0.4-0.4-0.4-1,0-1.4c0,0,0,0,0.1-0.1c-1-2.7-3.6-4.7-5.9-5.5c-1.4-0.5-3-1-4.9-1.4l4.4-7.7l-7,1.8
			c0,0,0.9-1.2,1-2.5c0-0.3,0-0.5,0-0.7c-0.4,1-1.1,2-2.8,2l0,0c-2.9,0-2.8-2.5-2.8-2.5h-0.7c0,0,0.1,2.5-2.8,2.5l0,0
			c-1.6,0-2.4-1.1-2.8-2c0,0.2,0,0.5,0,0.7c0.1,1.3,1,2.5,1,2.5l-7-1.8c0,0,4.5,7.7,4.4,7.7c-1.9,0.4-3.5,0.9-4.9,1.4
			c-2.9,1.1-6.3,3.9-6.3,7.9v4.3h7.8v-2.3L6.4,32v-2.8l1.3-1.3c0,0,0.2-0.2,0.4-0.2s0.5,0,0.5,0.3s0,2.3,0,2.3h2.8c0,0,0-2,0-2.3
			s0.3-0.3,0.5-0.3s0.4,0.2,0.4,0.2l1.3,1.3V32l-1.8,1.8v2.3h12.9c-0.1-1.1,0-2.1,0.3-3.2c0.7-2.1,2-3.4,2.1-3.5
			c0.2-0.2,0.4-0.3,0.7-0.3l0,0c0.3,0,0.5,0.1,0.7,0.3c0.4,0.4,0.4,1,0,1.4c0,0-1.1,1.1-1.6,2.7c-0.3,0.9-0.3,1.7-0.2,2.5h0.7v-0.1
			c-0.1-0.8-0.1-1.6,0.2-2.4c0.4-1.3,1.3-2.2,1.4-2.3c0.2-0.2,0.4-0.3,0.7-0.3c0.3,0,0.5,0.1,0.7,0.3c0.4,0.4,0.4,1,0,1.4
			c0,0-0.6,0.6-0.9,1.5c-0.2,0.6-0.2,1.2,0,1.8h1.1c-0.1-0.3-0.2-0.6-0.2-0.9c0-1.3,1.1-2.4,2.4-2.4c1.3,0,2.4,1.1,2.4,2.4
			c0,0.3-0.1,0.6-0.2,0.9h1.1c0.2-0.6,0.2-1.2,0-1.8c-0.3-0.9-0.9-1.5-0.9-1.5c-0.4-0.4-0.4-1,0-1.4c0.2-0.2,0.5-0.3,0.7-0.3
			c0.3,0,0.5,0.1,0.7,0.3c0.1,0.1,0.6,0.5,1,1.3v-0.9C37.6,31.7,37.6,31.6,37.6,31.5z"/>
	</g>
</g>
<g id="形状_2">
	<g>
		<path class="st1" d="M17.4,12.3h-3.1c-0.2,0-0.4,0.2-0.4,0.4v0.4c0,0,0.3,1.8,2,1.8c2,0,1.9-1.8,1.9-1.8v-0.4
			C17.8,12.5,17.6,12.3,17.4,12.3z M23.7,12.3h-3.1c-0.2,0-0.4,0.2-0.4,0.4v0.4c0,0,0,1.8,1.9,1.8c1.7,0,2-1.8,2-1.8v-0.4
			C24.1,12.5,23.9,12.3,23.7,12.3z M32.8,33.4c-1,0-1.7,0.8-1.7,1.7s0.8,1.7,1.7,1.7c1,0,1.7-0.8,1.7-1.7S33.8,33.4,32.8,33.4z
			 M29.9,31.8c-0.2-0.2-0.4-0.2-0.6,0c0,0-0.8,0.8-1.2,2c-0.4,1.1-0.5,2.9,1.2,4.8c0.1,0.1,0.2,0.1,0.3,0.1c0.1,0,0.2,0,0.3-0.1
			c0.2-0.2,0.2-0.4,0-0.6c-2.7-3.1-0.1-5.6,0-5.7C30.1,32.2,30.1,32,29.9,31.8z M26.3,33.4c0.6-1.8,1.7-2.9,1.7-2.9
			c0.2-0.2,0.2-0.4,0-0.6s-0.4-0.2-0.6,0c-0.1,0.1-1.3,1.3-1.9,3.2c-0.6,1.8-0.7,4.6,1.9,7.4c0.1,0.1,0.2,0.1,0.3,0.1
			c0.1,0,0.2,0,0.3-0.1c0.2-0.2,0.2-0.4,0-0.6C26.2,37.9,25.6,35.7,26.3,33.4z M37.4,33.8c-0.4-1.2-1.2-2-1.2-2
			c-0.2-0.2-0.4-0.2-0.6,0c-0.2,0.2-0.2,0.4,0,0.6c0,0,0.7,0.7,1,1.7c0.4,1.4,0.1,2.7-1,4c-0.2,0.2-0.1,0.4,0,0.6
			c0.1,0.1,0.2,0.1,0.3,0.1s0.2,0,0.3-0.1C37.9,36.7,37.8,34.9,37.4,33.8z M40,33.1c-0.6-1.9-1.9-3.2-1.9-3.2
			c-0.2-0.2-0.4-0.2-0.6,0c-0.2,0.2-0.2,0.4,0,0.6c0,0,1.1,1.2,1.7,2.9c0.8,2.3,0.2,4.5-1.7,6.6c-0.2,0.2-0.1,0.4,0,0.6
			c0.1,0.1,0.2,0.1,0.3,0.1s0.2,0,0.3-0.1C40.8,37.7,40.6,34.9,40,33.1z"/>
	</g>
</g>
<polyline class="st2" points="19,2.3 14.9,0.7 12.4,9.5 8,11.9 13.2,11.9 "/>
<path class="st2" d="M37.2,29.5c-1-2.7-3.5-4.6-5.8-5.5l0,0c-1.4-0.5-5-1.4-5-1.4s0.5-1,1.3-2.2c1.3-2.3,3.2-5.5,3.2-5.5l-7,1.8"/>
<path class="st2" d="M11.3,22.5c-1.9,0.4-3.1,0.9-4.5,1.4c-2.9,1.1-6.3,3.9-6.3,7.9v4.3h7.4"/>
<line class="st2" x1="18.7" y1="36.1" x2="23.1" y2="36.1"/>
</svg>
