<?xml version="1.0" encoding="utf-8"?>
<!-- Generator: Adobe Illustrator 21.0.0, SVG Export Plug-In . SVG Version: 6.00 Build 0)  -->
<svg version="1.1" id="图层_3" xmlns="http://www.w3.org/2000/svg" xmlns:xlink="http://www.w3.org/1999/xlink" x="0px" y="0px"
	 viewBox="0 0 39.2 40" style="enable-background:new 0 0 39.2 40;" xml:space="preserve">
<style type="text/css">
	.st0{opacity:0.3;fill:#2BEDE6;enable-background:new    ;}
	.st1{fill:#2BEDE6;}
</style>
<g>
	<circle class="st0" cx="19.2" cy="20" r="15.5"/>
	<rect x="32.2" y="32" transform="matrix(0.7071 -0.7071 0.7071 0.7071 -13.7522 32.7087)" class="st0" width="0.8" height="1.9"/>
	<rect x="31.6" y="6.3" transform="matrix(0.7071 -0.7071 0.7071 0.7071 4.7767 24.9913)" class="st0" width="1.9" height="0.8"/>
	<rect x="6.2" y="6.5" transform="matrix(0.7071 -0.7071 0.7071 0.7071 -3.201 6.7902)" class="st0" width="0.8" height="1.5"/>
	<rect x="5.6" y="32.4" transform="matrix(0.7071 -0.7071 0.7071 0.7071 -21.2935 14.231)" class="st0" width="1.9" height="0.8"/>
</g>
<path class="st1" d="M13.6,6l-0.4-0.8C9.4,7.1,6,10.1,4.5,13.9l0.8,0.4C6.8,10.5,9.8,7.5,13.6,6z"/>
<path class="st1" d="M33.2,14.3l0.8-0.4c-1.5-3.8-4.9-7.2-9.1-8.7L24.5,6C28.3,7.5,31.3,10.5,33.2,14.3z"/>
<path class="st1" d="M5.3,25.1l-0.8,0.4c1.5,4.2,4.9,7.2,8.7,9.1l0.4-0.8C9.8,32.3,6.8,28.9,5.3,25.1z"/>
<path class="st1" d="M24.7,33.8l0.4,0.8c4.2-1.5,7.5-4.9,9.1-9.1l-0.8-0.4C31.9,29.2,28.9,32.3,24.7,33.8z"/>
<rect x="36.2" y="19.6" class="st1" width="3" height="0.8"/>
<rect x="18.9" y="37" class="st1" width="0.8" height="3"/>
<rect x="18.9" class="st1" width="0.8" height="3"/>
<rect y="19.6" class="st1" width="2.6" height="0.8"/>
<path class="st1" d="M21.9,25.3c0,0.4,0.4,0.8,0.4,0.8c1.9-1.1,3-3,3-4.9v-0.4c-0.4,0-0.8,0-1.1,0l0,0C24.2,23,23.4,24.5,21.9,25.3z
	"/>
<path class="st1" d="M13.6,20.8L13.6,20.8c0,2.6,1.1,4.5,3,5.3c0-0.4,0.4-0.8,0.4-0.8c-1.1-0.8-2.3-2.3-2.3-4.2l0,0
	C14.3,20.8,14,20.8,13.6,20.8z"/>
<path class="st1" d="M22.6,16.2c-1.1-0.8-1.9-0.8-3-0.8s-2.3,0-3,0.8c0,0.4,0.4,0.4,0.8,0.8c0.4-0.4,1.1-0.8,2.3-0.8
	c0.8,0,1.5,0.4,2.3,0.8C22.3,16.6,22.3,16.6,22.6,16.2z"/>
<path class="st1" d="M23.4,28.7c-2.3-1.5-3-4.2-2.3-6.4l-0.8-0.4c0,0.4-0.4,0.4-0.8,0.4s-0.8,0-1.1-0.4l-0.8,0.4
	c1.1,2.3,0,4.9-2.3,6.4c-1.9,1.1-4.2,0.8-5.7-0.4c1.9,1.9,4.9,2.3,7.5,1.1c0.8-0.4,1.5-1.1,2.3-1.9c0.4,0.8,1.1,1.5,2.3,1.9
	c2.6,1.5,5.7,1.1,7.5-1.1C27.5,29.4,25.3,29.8,23.4,28.7z"/>
<path class="st1" d="M14,17.7c-1.1,0-1.9,0.4-2.6,0.8c-2.6,1.5-3.8,4.5-3,7.2C8,23.8,9.2,21.9,11,20.8c2.3-1.5,4.9-1.1,6.4,1.1
	l0.8-0.4v-0.4c0-0.8,0.4-1.1,1.1-1.5v-1.1c-2.6,0-4.2-2.3-4.2-4.9c0-2.3,1.1-4.2,3-4.9c-2.6,0.8-4.9,3.4-4.9,6.4
	C13.2,15.8,13.6,17,14,17.7z"/>
<path class="st1" d="M24.2,13.6c0,2.6-1.9,4.9-4.2,4.9v0.8c0.4,0.4,1.1,1.1,1.1,1.5v0.4l0.8,0.4c1.5-1.9,4.2-2.6,6.4-1.1
	c1.9,1.1,3,3,2.6,5.3c0.8-2.6-0.4-5.7-3-7.2c-0.8-0.4-1.9-0.8-3-0.8c0.4-0.8,0.8-1.9,0.8-2.6c0-3-1.9-5.7-4.5-6
	C23,9.4,24.2,11.3,24.2,13.6z"/>
</svg>
