<?xml version="1.0" encoding="utf-8"?>
<!-- Generator: Adobe Illustrator 21.0.0, SVG Export Plug-In . SVG Version: 6.00 Build 0)  -->
<svg version="1.1" id="图层_3" xmlns="http://www.w3.org/2000/svg" xmlns:xlink="http://www.w3.org/1999/xlink" x="0px" y="0px"
	 viewBox="0 0 49.8 40" style="enable-background:new 0 0 49.8 40;" xml:space="preserve">
<style type="text/css">
	.st0{opacity:0.3;fill:#F69948;enable-background:new    ;}
	.st1{fill:#F69948;}
</style>
<g>
	<path class="st0" d="M28,30.2l-12.6,8.6c-1,0.7-2.3,1-3.5,0.8l-7.4-1.1c-2.8-0.4-4.7-3.2-4-5.9l1.7-7.2c0.3-1.2,1-2.3,2-3l12.7-8.6
		c0.9-0.6,1.8-1,2.8-1.2l14.7-3.3l4.1,6l-8.3,12.6C29.7,28.8,28.9,29.6,28,30.2z"/>
	<g>
		<path class="st1" d="M15.2,38.5c-1,0.7-2.1,0.9-3.3,0.8l-7.4-1.1c-1.2-0.2-2.4-0.9-3.1-1.9S0.5,34,0.7,32.7l1.7-7.2
			c0.3-1.1,0.9-2.1,1.9-2.7L5,22.3l-0.4-0.6L4,22.2c-1,0.7-1.8,1.8-2.1,3.1l-1.7,7.2c-0.3,1.4-0.1,2.9,0.8,4.1
			c0.8,1.2,2.1,2,3.6,2.2l7.4,1.1c0.3,0,0.5,0.1,0.8,0.1c1.1,0,2.1-0.3,3-0.9l0.7-0.5L15.9,38L15.2,38.5z"/>
		<path class="st1" d="M17.1,14.1c0.8-0.6,1.7-1,2.7-1.2l14.7-3.3l-0.2-0.7l-0.9,0.2l-0.3-7.7l-1-1.4l-7.5,5.1l-2.3,6.5l-2.8,0.6
			c-1.1,0.2-2.1,0.7-3,1.3l-0.9,0.6l0.4,0.6L17.1,14.1z"/>
		<polygon class="st1" points="43.3,6 42.9,5.3 35.7,9.1 36.6,10.4 		"/>
		<polygon class="st1" points="39.3,14.3 45.4,9.1 45,8.4 38.4,13 		"/>
		<polygon class="st1" points="38,12.3 49.8,3.9 49.3,3.2 37.1,11 		"/>
		<path class="st1" d="M39.1,16.6l-2.8,4.2l-1.1,0.3l3.7-5.6l-0.6-0.4L30,27.7c-0.6,0.9-1.3,1.6-2.1,2.2L27,30.5l0.4,0.6l0.9-0.6
			c0.9-0.6,1.7-1.4,2.3-2.4l1.7-2.5l6.8,0.3l7.5-5.1l-1-1.4L39.1,16.6z"/>
		<text fill="#F69948" style="font-size: 8px;" x="0" y="10" transform="rotate(-40 40,15)">网络攻击</text>
		<!-- <path class="st1" d="M22.4,21.2c-0.3-0.2-0.5-0.4-0.8-0.5s-0.5-0.1-0.8-0.1c-0.3,0.1-0.5,0.2-0.8,0.4c-1.1,0.7-1.1,1.9-0.1,3.4
			s2.1,1.9,3.2,1.1c1.1-0.7,1.2-1.9,0.2-3.3C23,21.8,22.7,21.5,22.4,21.2z M22.6,24.8c-0.2,0.2-0.5,0.2-0.7,0s-0.6-0.5-0.9-1.1
			c-0.4-0.6-0.6-1-0.7-1.3s0-0.5,0.3-0.7c0.2-0.2,0.5-0.2,0.7,0s0.6,0.5,0.9,1.1c0.4,0.6,0.6,1,0.6,1.2
			C22.9,24.4,22.8,24.6,22.6,24.8z"/>
		<path class="st1" d="M12.8,32.4c1-0.7,1.6-1.3,1.8-1.8c0.2-0.4,0.2-0.9,0-1.4s-0.5-1.2-1-1.9c-0.5-0.8-1-1.3-1.4-1.7
			c-0.4-0.3-0.9-0.6-1.3-0.6c-0.3,0-0.6,0-0.9,0.1c-0.3,0.1-0.7,0.3-1.1,0.6l-1.3,0.9L12,33L12.8,32.4z M9.2,26.4
			c0.6-0.4,1.1-0.5,1.6-0.2c0.5,0.2,1,0.8,1.7,1.8c0.6,0.9,0.9,1.6,0.9,2.1s-0.3,0.9-1,1.4l-3.4-5L9.2,26.4z"/>
		<path class="st1" d="M27,20.9c-0.2-0.3-0.4-0.4-0.7-0.5c-0.1,0-0.3-0.1-0.5-0.1s-0.4,0-0.7,0c-0.6,0-1-0.1-1.2-0.3
			c0-0.1-0.1-0.1-0.1-0.2s0-0.2,0-0.2c0-0.1,0.1-0.2,0.1-0.2c0.1-0.1,0.1-0.1,0.2-0.2c0.3-0.2,0.6-0.3,0.9-0.3l-0.5-0.8
			c-0.4,0.1-0.7,0.2-1,0.4c-0.4,0.3-0.7,0.6-0.8,1c-0.1,0.4,0,0.8,0.2,1.1c0.2,0.3,0.4,0.4,0.7,0.5c0.3,0.1,0.7,0.1,1.3,0.1
			c0.2,0,0.3,0,0.4,0s0.2,0,0.3,0c0.1,0,0.3,0.1,0.4,0.3c0.2,0.4,0.1,0.7-0.3,1c-0.3,0.2-0.6,0.3-1,0.3l0.5,0.8
			c0.4-0.1,0.7-0.2,1-0.4c0.5-0.3,0.7-0.7,0.9-1.1C27.4,21.7,27.3,21.3,27,20.9z"/>
		<path class="st1" d="M18.4,24c-0.5-0.8-1-1.3-1.4-1.7c-0.4-0.3-0.9-0.6-1.3-0.6c-0.3,0-0.6,0-0.9,0.1c-0.3,0.1-0.7,0.3-1.1,0.6
			l-1.3,0.9l4.4,6.5l0.9-0.6c1-0.7,1.6-1.3,1.8-1.8c0.2-0.4,0.2-0.9,0-1.4C19.3,25.3,18.9,24.7,18.4,24z M17.3,28.2l-3.4-5l0.1-0.1
			c0.6-0.4,1.1-0.5,1.6-0.2c0.5,0.2,1,0.8,1.7,1.8c0.6,0.9,0.9,1.6,0.9,2.1C18.3,27.3,18,27.8,17.3,28.2z"/> -->
	</g>
</g>
</svg>
